<?xml version="1.0" standalone="no"?>
<!DOCTYPE svg PUBLIC "-//W3C//DTD SVG 20010904//EN"
 "http://www.w3.org/TR/2001/REC-SVG-20010904/DTD/svg10.dtd">
<svg version="1.0" xmlns="http://www.w3.org/2000/svg"
 width="785.000000pt" height="318.000000pt" viewBox="0 0 785.000000 318.000000"
 preserveAspectRatio="xMidYMid meet">

<g transform="translate(0.000000,318.000000) scale(0.100000,-0.100000)"
fill="#000000" stroke="none">
<path d="M665 2653 c64 -27 123 -89 140 -147 23 -77 22 -1594 -1 -1662 -19
-55 -62 -106 -113 -131 l-36 -18 128 -3 c70 -1 184 -1 255 0 l127 3 -34 19
c-41 22 -74 54 -101 98 -20 32 -20 47 -20 891 l0 857 118 0 c132 0 156 -8 186
-60 18 -30 21 -52 21 -155 -1 -115 -26 -287 -47 -310 -4 -5 -8 -18 -8 -28 0
-43 -137 -278 -204 -351 -20 -21 -36 -40 -36 -43 0 -15 181 138 249 211 20 21
45 48 56 60 11 12 31 37 45 56 13 19 27 37 30 40 9 9 50 69 50 74 0 3 11 29
24 58 48 104 66 176 65 267 0 47 -6 100 -12 118 -16 43 -64 101 -97 118 -90
47 -99 48 -470 51 -341 4 -353 3 -315 -13z"/>
<path d="M1645 2641 c49 -28 87 -65 113 -109 9 -17 12 -148 12 -563 0 -626 10
-784 61 -972 34 -128 111 -241 187 -277 15 -7 35 -16 44 -21 10 -5 115 -9 233
-9 214 0 217 0 270 27 30 14 72 45 92 67 46 50 103 163 118 231 3 17 10 50 16
75 29 140 38 347 39 872 0 540 1 563 35 606 24 31 50 52 90 73 37 20 46 21 72
10 40 -16 97 -68 122 -111 21 -35 21 -43 21 -865 0 -816 0 -831 -20 -863 -23
-37 -65 -82 -77 -82 -4 0 -19 -9 -33 -20 -25 -19 -23 -20 488 -20 l513 0 -18
28 c-26 37 -51 128 -73 263 -13 85 -29 432 -31 674 l-1 190 -14 -130 c-25
-251 -51 -466 -64 -540 -5 -27 -14 -81 -21 -120 -6 -38 -16 -81 -22 -95 -27
-70 -54 -115 -83 -136 -30 -23 -38 -24 -192 -24 l-162 0 0 831 c0 602 3 842
12 870 16 55 68 111 130 142 l53 27 -555 0 -555 0 53 -27 c68 -34 119 -93 127
-147 11 -72 0 -1288 -12 -1321 -6 -16 -16 -55 -23 -85 -30 -130 -105 -238
-193 -277 -40 -18 -167 -16 -205 2 -53 27 -114 97 -147 170 -39 84 -61 195
-75 369 -14 179 -13 1060 1 1128 15 68 62 127 131 161 l53 27 -280 0 -280 0
50 -29z"/>
<path d="M4285 2660 c-105 -13 -164 -39 -217 -98 -65 -72 -88 -148 -88 -291 0
-117 11 -172 50 -256 52 -112 107 -156 352 -279 65 -33 141 -80 169 -105 128
-113 163 -321 97 -576 -27 -106 -84 -235 -120 -275 -10 -11 -18 -23 -18 -27 0
-7 -44 -60 -88 -108 -51 -55 -220 -185 -239 -185 -7 0 -13 -4 -13 -10 0 -5 -5
-10 -11 -10 -15 0 -141 -62 -135 -67 2 -2 52 12 111 31 59 20 113 36 120 36 7
0 15 3 17 8 2 4 28 18 58 32 88 40 251 152 307 211 103 109 123 136 162 214
65 130 81 183 102 330 27 195 -30 396 -144 509 l-40 39 7 91 c16 226 66 545
101 651 18 56 47 115 56 115 4 0 9 7 13 15 5 13 -29 15 -272 13 -152 0 -304
-4 -337 -8z m292 -127 c31 -17 70 -73 86 -123 30 -92 37 -165 37 -384 l0 -228
-27 18 c-16 10 -57 33 -93 52 -181 95 -254 135 -267 145 -81 67 -107 127 -107
242 1 100 22 161 77 222 69 76 212 103 294 56z"/>
<path d="M5386 2655 c10 -8 25 -15 32 -15 7 0 19 -6 26 -12 8 -7 25 -23 40
-36 23 -19 26 -28 20 -55 -3 -17 -10 -38 -15 -47 -10 -17 -67 -144 -80 -177
-5 -13 -13 -33 -18 -45 -5 -13 -17 -40 -26 -61 -18 -41 -52 -132 -91 -242 -14
-38 -29 -79 -34 -90 -5 -11 -23 -63 -40 -115 -17 -52 -34 -102 -39 -110 -5 -9
-12 -35 -16 -58 -4 -23 -15 -66 -26 -94 -10 -29 -19 -63 -19 -75 0 -12 -4 -24
-9 -27 -4 -3 -11 -22 -14 -43 -4 -21 -11 -56 -16 -78 -51 -230 -64 -338 -59
-490 8 -223 63 -333 195 -395 66 -31 79 -26 39 16 -54 55 -66 105 -66 268 0
130 11 225 40 366 12 53 16 72 40 168 5 23 14 60 19 82 17 82 27 71 46 -56 30
-196 45 -266 45 -205 0 33 30 118 46 132 8 6 14 16 14 21 0 6 26 34 57 64 51
48 156 109 221 128 l22 7 0 -230 c0 -128 -5 -252 -11 -281 -13 -62 -60 -126
-114 -154 l-40 -21 127 -3 c71 -1 185 -1 255 0 106 3 124 5 103 14 -35 16 -83
63 -109 105 -21 34 -21 38 -21 867 0 648 3 837 13 854 25 44 63 81 112 109
l50 29 -359 0 c-319 0 -358 -2 -340 -15z m334 -660 l0 -565 -205 0 -205 0 6
28 c9 40 61 202 100 317 19 55 50 146 69 202 30 88 68 192 95 258 4 11 16 40
25 65 9 25 23 59 30 75 7 17 26 65 41 108 16 42 32 77 36 77 5 0 8 -254 8
-565z"/>
<path d="M6177 2654 c55 -27 114 -86 134 -132 18 -42 19 -81 19 -847 0 -881 3
-837 -61 -910 -17 -19 -37 -35 -45 -35 -8 0 -14 -4 -14 -9 0 -5 -10 -12 -22
-17 -27 -10 166 -16 360 -12 87 2 121 6 107 12 -11 5 -22 12 -25 15 -3 3 -14
11 -25 17 -10 6 -34 32 -52 58 l-33 48 0 859 0 859 114 0 c132 0 155 -6 187
-52 22 -31 24 -42 24 -168 0 -134 -5 -166 -47 -305 -23 -73 -116 -265 -143
-291 -8 -9 -15 -18 -15 -22 0 -4 -12 -21 -28 -37 -55 -60 -60 -71 -22 -45 38
27 41 29 85 65 17 14 33 25 38 25 4 0 7 -19 7 -42 0 -82 49 -301 90 -403 5
-11 16 -40 25 -64 26 -70 117 -251 127 -251 4 0 8 -7 8 -15 0 -8 5 -15 10 -15
6 0 10 -6 10 -13 0 -7 16 -30 35 -52 19 -22 35 -43 35 -47 0 -25 208 -228 315
-308 33 -25 64 -49 70 -53 26 -20 128 -77 132 -73 3 2 -17 19 -44 37 -75 52
-303 299 -303 329 0 5 -11 21 -24 37 -25 30 -136 241 -136 259 0 6 -11 38 -24
71 -48 116 -76 243 -101 448 -20 159 -19 214 2 237 15 17 13 18 -55 18 -40 0
-72 3 -72 8 0 4 16 25 35 47 42 48 40 45 91 120 22 33 58 101 80 150 36 84 39
98 42 200 4 126 -7 163 -63 219 -46 46 -114 76 -195 87 -36 5 -200 8 -365 8
-279 1 -298 -1 -268 -15z"/>
</g>
</svg>
